<svg xmlns="http://www.w3.org/2000/svg" version="1.1" xmlns:xlink="http://www.w3.org/1999/xlink" xmlns:svgjs="http://svgjs.dev/svgjs" width="1440" height="560" preserveAspectRatio="none" viewBox="0 0 1440 560"><g mask="url(&quot;#SvgjsMask1010&quot;)" fill="none"><path d="M335.22 638.81C457.8 616.99 398.16 325.85 710.78 311.75 1023.41 297.65 1266.36 95.55 1461.91 93.35" stroke="rgba(166, 58, 80, 1)" stroke-width="2"></path><path d="M519.2 614.17C641.94 586.57 606.67 262.46 878.78 262.14 1150.88 261.82 1410.84 467.29 1597.93 469.34" stroke="rgba(166, 58, 80, 1)" stroke-width="2"></path><path d="M243.32 579.34C388.71 538.77 425.95 141.79 649.72 132.79 873.48 123.79 852.92 202.79 1056.11 202.79 1259.31 202.79 1359.42 133.05 1462.51 132.79" stroke="rgba(166, 58, 80, 1)" stroke-width="2"></path><path d="M699.05 596.16C803.08 560.34 762.72 254.94 975.49 253.71 1188.26 252.48 1385.08 403.56 1528.37 404.91" stroke="rgba(166, 58, 80, 1)" stroke-width="2"></path><path d="M237.68 639.21C375.68 612.55 432.25 266.46 654.2 261.6 876.16 256.74 862.47 331.6 1070.73 331.6 1278.99 331.6 1381.66 261.84 1487.25 261.6" stroke="rgba(166, 58, 80, 1)" stroke-width="2"></path></g><defs><mask id="SvgjsMask1010"><rect width="1440" height="560" fill="#ffffff"></rect></mask></defs></svg>